<svg width="128" height="194" viewBox="0 0 128 194" fill="none" xmlns="http://www.w3.org/2000/svg">
<g clip-path="url(#clip0_1006_2)">
<rect width="128" height="194" fill="#45D0C1"/>
<path d="M14.87 112.15C13.7367 112.15 12.8567 111.793 12.23 111.08C11.61 110.367 11.3 109.373 11.3 108.1C11.3 106.84 11.6067 105.85 12.22 105.13C12.8333 104.41 13.7133 104.05 14.86 104.05C15.5467 104.05 16.1333 104.18 16.62 104.44C17.1067 104.693 17.4867 105.047 17.76 105.5C18.0333 105.953 18.1933 106.473 18.24 107.06H16.57C16.5167 106.513 16.34 106.087 16.04 105.78C15.74 105.467 15.35 105.31 14.87 105.31C14.2633 105.31 13.8067 105.553 13.5 106.04C13.1933 106.527 13.04 107.217 13.04 108.11C13.04 109.037 13.1967 109.733 13.51 110.2C13.83 110.66 14.28 110.89 14.86 110.89C15.36 110.89 15.7567 110.73 16.05 110.41C16.35 110.09 16.5233 109.667 16.57 109.14H18.24C18.1933 109.727 18.0333 110.247 17.76 110.7C17.4867 111.153 17.1067 111.51 16.62 111.77C16.14 112.023 15.5567 112.15 14.87 112.15ZM21.28 112.12C20.72 112.12 20.26 111.987 19.9 111.72C19.54 111.447 19.2733 111.073 19.1 110.6C18.9267 110.127 18.84 109.59 18.84 108.99C18.84 108.37 18.9267 107.827 19.1 107.36C19.28 106.893 19.55 106.53 19.91 106.27C20.27 106.01 20.7233 105.88 21.27 105.88C21.69 105.88 22.0333 105.963 22.3 106.13C22.5733 106.29 22.78 106.507 22.92 106.78H23.16V106H24.66V112H23.16V111.22H22.92C22.78 111.473 22.5767 111.687 22.31 111.86C22.0433 112.033 21.7 112.12 21.28 112.12ZM21.7 110.98C22.1067 110.98 22.43 110.803 22.67 110.45C22.9167 110.09 23.04 109.607 23.04 109C23.04 108.387 22.9167 107.903 22.67 107.55C22.43 107.197 22.1067 107.02 21.7 107.02C21.3333 107.02 21.0433 107.187 20.83 107.52C20.6233 107.847 20.52 108.34 20.52 109C20.52 109.66 20.6233 110.157 20.83 110.49C21.0433 110.817 21.3333 110.98 21.7 110.98ZM26.1423 114V106H27.6423V106.78H27.8823C28.0223 106.527 28.2257 106.313 28.4923 106.14C28.759 105.967 29.1157 105.88 29.5623 105.88C30.109 105.88 30.559 106.017 30.9123 106.29C31.2657 106.557 31.529 106.927 31.7023 107.4C31.8757 107.867 31.9623 108.403 31.9623 109.01C31.9623 109.623 31.8723 110.167 31.6923 110.64C31.519 111.107 31.2523 111.47 30.8923 111.73C30.539 111.99 30.0957 112.12 29.5623 112.12C29.1757 112.12 28.8557 112.05 28.6023 111.91C28.349 111.77 28.149 111.58 28.0023 111.34H27.7623V114H26.1423ZM29.1023 110.98C29.469 110.98 29.7557 110.817 29.9623 110.49C30.1757 110.157 30.2823 109.66 30.2823 109C30.2823 108.34 30.1757 107.847 29.9623 107.52C29.7557 107.187 29.469 107.02 29.1023 107.02C28.6957 107.02 28.369 107.197 28.1223 107.55C27.8823 107.903 27.7623 108.387 27.7623 109C27.7623 109.607 27.8823 110.09 28.1223 110.45C28.369 110.803 28.6957 110.98 29.1023 110.98ZM35.0847 112.12C34.5247 112.12 34.0647 111.987 33.7047 111.72C33.3447 111.447 33.078 111.073 32.9047 110.6C32.7314 110.127 32.6447 109.59 32.6447 108.99C32.6447 108.37 32.7314 107.827 32.9047 107.36C33.0847 106.893 33.3547 106.53 33.7147 106.27C34.0747 106.01 34.528 105.88 35.0747 105.88C35.4947 105.88 35.838 105.963 36.1047 106.13C36.378 106.29 36.5847 106.507 36.7247 106.78H36.9647V106H38.4647V112H36.9647V111.22H36.7247C36.5847 111.473 36.3814 111.687 36.1147 111.86C35.848 112.033 35.5047 112.12 35.0847 112.12ZM35.5047 110.98C35.9114 110.98 36.2347 110.803 36.4747 110.45C36.7214 110.09 36.8447 109.607 36.8447 109C36.8447 108.387 36.7214 107.903 36.4747 107.55C36.2347 107.197 35.9114 107.02 35.5047 107.02C35.138 107.02 34.848 107.187 34.6347 107.52C34.428 107.847 34.3247 108.34 34.3247 109C34.3247 109.66 34.428 110.157 34.6347 110.49C34.848 110.817 35.138 110.98 35.5047 110.98ZM42.3494 112V106H43.9694V112H42.3494ZM43.1594 105.31C42.8727 105.31 42.656 105.237 42.5094 105.09C42.3627 104.937 42.2894 104.74 42.2894 104.5C42.2894 104.26 42.3627 104.067 42.5094 103.92C42.656 103.767 42.8727 103.69 43.1594 103.69C43.446 103.69 43.6627 103.767 43.8094 103.92C43.956 104.067 44.0294 104.26 44.0294 104.5C44.0294 104.74 43.956 104.937 43.8094 105.09C43.6627 105.237 43.446 105.31 43.1594 105.31ZM45.4548 112V106H46.9548V106.9H47.1948C47.3148 106.6 47.4982 106.35 47.7448 106.15C47.9982 105.95 48.3682 105.85 48.8548 105.85C49.5215 105.85 50.0215 106.06 50.3548 106.48C50.6882 106.9 50.8548 107.47 50.8548 108.19V112H49.2348V108.46C49.2348 108.047 49.1615 107.73 49.0148 107.51C48.8682 107.283 48.6282 107.17 48.2948 107.17C47.9082 107.17 47.6082 107.323 47.3948 107.63C47.1815 107.93 47.0748 108.307 47.0748 108.76V112H45.4548ZM54.2517 112.12C53.7051 112.12 53.2551 111.987 52.9017 111.72C52.5484 111.447 52.2851 111.073 52.1117 110.6C51.9384 110.127 51.8517 109.59 51.8517 108.99C51.8517 108.37 51.9384 107.827 52.1117 107.36C52.2917 106.893 52.5584 106.53 52.9117 106.27C53.2717 106.01 53.7184 105.88 54.2517 105.88C54.6451 105.88 54.9651 105.95 55.2117 106.09C55.4651 106.23 55.6651 106.42 55.8117 106.66H56.0517V104H57.6717V112H56.1717V111.22H55.9317C55.7917 111.473 55.5884 111.687 55.3217 111.86C55.0551 112.033 54.6984 112.12 54.2517 112.12ZM54.7117 110.98C55.1184 110.98 55.4417 110.803 55.6817 110.45C55.9284 110.09 56.0517 109.607 56.0517 109C56.0517 108.387 55.9284 107.903 55.6817 107.55C55.4417 107.197 55.1184 107.02 54.7117 107.02C54.3451 107.02 54.0551 107.187 53.8417 107.52C53.6351 107.847 53.5317 108.34 53.5317 109C53.5317 109.66 53.6351 110.157 53.8417 110.49C54.0551 110.817 54.3451 110.98 54.7117 110.98ZM59.1541 112V106H60.7741V112H59.1541ZM59.9641 105.31C59.6774 105.31 59.4607 105.237 59.3141 105.09C59.1674 104.937 59.0941 104.74 59.0941 104.5C59.0941 104.26 59.1674 104.067 59.3141 103.92C59.4607 103.767 59.6774 103.69 59.9641 103.69C60.2507 103.69 60.4674 103.767 60.6141 103.92C60.7607 104.067 60.8341 104.26 60.8341 104.5C60.8341 104.74 60.7607 104.937 60.6141 105.09C60.4674 105.237 60.2507 105.31 59.9641 105.31ZM64.4995 112.15C63.8329 112.15 63.2995 112.047 62.8995 111.84C62.5062 111.627 62.2162 111.36 62.0295 111.04C61.8495 110.72 61.7462 110.4 61.7195 110.08H63.2595C63.2929 110.253 63.3629 110.413 63.4695 110.56C63.5829 110.7 63.7295 110.81 63.9095 110.89C64.0962 110.97 64.3195 111.01 64.5795 111.01C64.8995 111.01 65.1295 110.957 65.2695 110.85C65.4095 110.737 65.4795 110.593 65.4795 110.42C65.4795 110.26 65.4129 110.127 65.2795 110.02C65.1529 109.907 64.9429 109.803 64.6495 109.71L63.9295 109.47C63.5829 109.35 63.2629 109.22 62.9695 109.08C62.6762 108.933 62.4395 108.747 62.2595 108.52C62.0862 108.293 61.9995 108 61.9995 107.64C61.9995 107.107 62.2029 106.677 62.6095 106.35C63.0162 106.017 63.5929 105.85 64.3395 105.85C64.8795 105.85 65.3195 105.933 65.6595 106.1C66.0062 106.267 66.2662 106.49 66.4395 106.77C66.6129 107.043 66.7129 107.347 66.7395 107.68H65.2595C65.2262 107.44 65.1262 107.257 64.9595 107.13C64.7929 106.997 64.5662 106.93 64.2795 106.93C64.0195 106.93 63.8229 106.98 63.6895 107.08C63.5629 107.18 63.4995 107.317 63.4995 107.49C63.4995 107.663 63.5695 107.807 63.7095 107.92C63.8495 108.033 64.0629 108.137 64.3495 108.23L65.0695 108.46C65.4162 108.567 65.7329 108.693 66.0195 108.84C66.3129 108.98 66.5462 109.167 66.7195 109.4C66.8929 109.627 66.9795 109.923 66.9795 110.29C66.9795 110.85 66.7662 111.3 66.3395 111.64C65.9195 111.98 65.3062 112.15 64.4995 112.15ZM67.9548 114V106H69.4548V106.78H69.6948C69.8348 106.527 70.0382 106.313 70.3048 106.14C70.5715 105.967 70.9282 105.88 71.3748 105.88C71.9215 105.88 72.3715 106.017 72.7248 106.29C73.0782 106.557 73.3415 106.927 73.5148 107.4C73.6882 107.867 73.7748 108.403 73.7748 109.01C73.7748 109.623 73.6848 110.167 73.5048 110.64C73.3315 111.107 73.0648 111.47 72.7048 111.73C72.3515 111.99 71.9082 112.12 71.3748 112.12C70.9882 112.12 70.6682 112.05 70.4148 111.91C70.1615 111.77 69.9615 111.58 69.8148 111.34H69.5748V114H67.9548ZM70.9148 110.98C71.2815 110.98 71.5682 110.817 71.7748 110.49C71.9882 110.157 72.0948 109.66 72.0948 109C72.0948 108.34 71.9882 107.847 71.7748 107.52C71.5682 107.187 71.2815 107.02 70.9148 107.02C70.5082 107.02 70.1815 107.197 69.9348 107.55C69.6948 107.903 69.5748 108.387 69.5748 109C69.5748 109.607 69.6948 110.09 69.9348 110.45C70.1815 110.803 70.5082 110.98 70.9148 110.98ZM77.4172 112.15C76.4239 112.15 75.6805 111.867 75.1872 111.3C74.7005 110.727 74.4572 109.96 74.4572 109C74.4572 108.04 74.7005 107.277 75.1872 106.71C75.6805 106.137 76.4239 105.85 77.4172 105.85C78.4105 105.85 79.1505 106.137 79.6372 106.71C80.1305 107.277 80.3772 108.04 80.3772 109C80.3772 109.96 80.1305 110.727 79.6372 111.3C79.1505 111.867 78.4105 112.15 77.4172 112.15ZM77.4172 111.07C77.8572 111.07 78.1805 110.897 78.3872 110.55C78.5939 110.203 78.6972 109.683 78.6972 108.99C78.6972 108.303 78.5939 107.79 78.3872 107.45C78.1805 107.103 77.8572 106.93 77.4172 106.93C76.9772 106.93 76.6539 107.103 76.4472 107.45C76.2405 107.79 76.1372 108.303 76.1372 108.99C76.1372 109.683 76.2405 110.203 76.4472 110.55C76.6539 110.897 76.9772 111.07 77.4172 111.07ZM81.4548 112V106H82.9548V106.9H83.1948C83.3148 106.6 83.4982 106.35 83.7448 106.15C83.9982 105.95 84.3682 105.85 84.8548 105.85C85.5215 105.85 86.0215 106.06 86.3548 106.48C86.6882 106.9 86.8548 107.47 86.8548 108.19V112H85.2348V108.46C85.2348 108.047 85.1615 107.73 85.0148 107.51C84.8682 107.283 84.6282 107.17 84.2948 107.17C83.9082 107.17 83.6082 107.323 83.3948 107.63C83.1815 107.93 83.0748 108.307 83.0748 108.76V112H81.4548ZM88.2517 112V106H89.8717V112H88.2517ZM88.4017 105.4V105.34L89.1417 103.6H90.6417V103.66L89.7217 105.4H88.4017ZM92.4672 112L90.7372 106.06V106H92.3772L93.6672 110.68H93.9072L95.2072 106H96.6972V106.06L94.9672 112H92.4672ZM100.066 112.15C99.1197 112.15 98.3964 111.867 97.8964 111.3C97.4031 110.733 97.1564 109.963 97.1564 108.99C97.1564 108.337 97.2664 107.777 97.4864 107.31C97.7131 106.843 98.0397 106.483 98.4664 106.23C98.8997 105.977 99.4264 105.85 100.046 105.85C100.94 105.85 101.623 106.12 102.096 106.66C102.576 107.2 102.816 107.993 102.816 109.04V109.38H98.7364C98.7697 109.887 98.8997 110.287 99.1264 110.58C99.3597 110.867 99.6731 111.01 100.066 111.01C100.38 111.01 100.63 110.917 100.816 110.73C101.01 110.543 101.136 110.327 101.196 110.08H102.736C102.676 110.447 102.543 110.787 102.336 111.1C102.13 111.413 101.84 111.667 101.466 111.86C101.093 112.053 100.626 112.15 100.066 112.15ZM98.7364 108.36H101.236C101.21 107.907 101.096 107.557 100.896 107.31C100.696 107.057 100.41 106.93 100.036 106.93C99.6697 106.93 99.3731 107.05 99.1464 107.29C98.9264 107.523 98.7897 107.88 98.7364 108.36ZM104.351 112C104.164 111.787 104.031 111.547 103.951 111.28C103.878 111.007 103.841 110.65 103.841 110.21V104H105.461V110.04C105.461 110.547 105.518 110.943 105.631 111.23C105.744 111.51 105.894 111.747 106.081 111.94V112H104.351Z" fill="white"/>
<g clip-path="url(#clip1_1006_2)">
<path fill-rule="evenodd" clip-rule="evenodd" d="M90.8003 89.4861C91.0003 89.3861 91.1003 89.0861 91.0003 88.8861C90.7003 88.2861 90.0003 87.0861 88.6003 86.6861C87.2003 86.2861 86.0003 86.9861 85.5003 87.3861C85.3003 87.4861 85.3003 87.7861 85.3003 87.9861C85.6003 88.5861 86.3003 89.7861 87.7003 90.1861C89.1003 90.5861 90.3003 89.8861 90.8003 89.4861Z" fill="white"/>
<path fill-rule="evenodd" clip-rule="evenodd" d="M88.1003 79.2861C88.0003 79.0861 87.7003 78.9861 87.4003 78.9861C86.6003 79.2861 84.7003 79.9861 84.0003 81.6861C83.3003 83.4861 84.2003 85.1861 84.7003 85.9861C84.8003 86.1861 85.1003 86.2861 85.4003 86.2861C86.2003 85.9861 88.1003 85.2861 88.8003 83.4861C89.4003 81.6861 88.5003 79.9861 88.1003 79.2861Z" fill="white"/>
<path fill-rule="evenodd" clip-rule="evenodd" d="M26.8003 96.0861V83.8861C26.8003 83.7861 26.9003 83.6861 27.0003 83.6861H29.5003C29.6003 83.6861 29.7003 83.7861 29.7003 83.8861V85.3861C29.7003 85.3861 30.7003 83.1861 33.7003 83.4861C33.9003 83.4861 34.0003 83.5861 34.0003 83.7861V86.2861C34.0003 86.4861 33.9003 86.5861 33.7003 86.5861C32.9003 86.5861 32.4003 86.7861 31.7003 87.1861C31.0003 87.4861 30.4003 88.0861 30.0003 88.8861V96.1861C30.0003 96.4861 29.8003 96.6861 29.5003 96.6861H27.1003C27.0003 96.4861 26.8003 96.2861 26.8003 96.0861Z" fill="white"/>
<path fill-rule="evenodd" clip-rule="evenodd" d="M62.3003 96.0861V83.9861C62.3003 83.7861 62.4003 83.6861 62.6003 83.6861H65.1003C65.3003 83.6861 65.4003 83.7861 65.4003 83.9861V85.3861C65.4003 85.3861 66.4003 83.1861 69.4003 83.4861C69.5003 83.4861 69.7003 83.5861 69.7003 83.7861V86.2861C69.7003 86.4861 69.6003 86.5861 69.4003 86.5861C68.6003 86.5861 68.1003 86.7861 67.4003 87.1861C66.7003 87.4861 66.1003 88.0861 65.7003 88.8861V96.1861C65.7003 96.4861 65.5003 96.6861 65.2003 96.6861H62.8003C62.5003 96.4861 62.3003 96.2861 62.3003 96.0861Z" fill="white"/>
<path fill-rule="evenodd" clip-rule="evenodd" d="M54.5002 93.586C52.5002 93.586 50.9002 91.986 50.9002 89.986C50.9002 87.986 52.5002 86.386 54.5002 86.386C56.5002 86.386 58.1002 87.986 58.1002 89.986C58.1002 91.986 56.4002 93.586 54.5002 93.586ZM54.5002 83.186C50.8002 83.186 47.7002 86.186 47.7002 89.986C47.7002 93.686 50.7002 96.786 54.5002 96.786C58.2002 96.786 61.3002 93.786 61.3002 89.986C61.2002 86.186 58.2002 83.186 54.5002 83.186Z" fill="white"/>
<path fill-rule="evenodd" clip-rule="evenodd" d="M80.2001 91.0861C80.0001 91.0861 79.9001 91.1861 79.9001 91.2861C79.2001 93.1861 77.1001 94.0861 75.2001 93.2861C74.6001 93.0861 74.1001 92.6861 73.7001 92.1861L80.1001 89.7861L82.7001 88.7861C83.0001 88.6861 83.1001 88.3861 83.0001 88.1861C82.0001 84.5861 78.3001 82.4861 74.7001 83.3861C71.1001 84.4861 69.0001 88.1861 70.0001 91.7861C71.0001 95.3861 74.7001 97.4861 78.3001 96.5861C80.8001 95.8861 82.7001 93.8861 83.2001 91.2861C83.2001 91.1861 83.1001 91.0861 83.0001 91.0861H80.2001ZM76.5001 86.3861C77.6001 86.3861 78.7001 86.9861 79.4001 87.8861L72.9001 90.2861C72.9001 90.1861 72.9001 90.0861 72.9001 89.9861C72.9001 87.9861 74.5001 86.3861 76.5001 86.3861Z" fill="white"/>
<path fill-rule="evenodd" clip-rule="evenodd" d="M46.9 83.7861C45.6 84.0861 44.6 84.9861 44 86.0861C43.9 86.2861 43.8 86.5861 43.7 86.8861L41.7 92.7861L39.7 86.8861C39.6 86.6861 39.5 86.3861 39.4 86.1861C38.8 84.8861 37.6 83.9861 36.2 83.6861C35.8 83.5861 35.4 83.5861 35 83.6861L39.6 96.0861C39.7 96.2861 39.9 96.4861 40.1 96.4861H42.8H42.9H43C43.2 96.4861 43.4 96.3861 43.5 96.0861L48.1 83.6861C47.8 83.5861 47.3 83.6861 46.9 83.7861Z" fill="white"/>
<path fill-rule="evenodd" clip-rule="evenodd" d="M20.4 81.2861L20.3 80.8861C20.1 80.3861 19.9 80.2861 19.3 80.2861H17.7C17.1 80.2861 16.8 80.5861 16.6 81.0861L16 82.6861C17.2 81.7861 18.6 81.2861 20.1 81.2861C20.2 81.2861 20.3 81.2861 20.4 81.2861Z" fill="white"/>
<path fill-rule="evenodd" clip-rule="evenodd" d="M16.6002 90.1861L18.5002 84.9861L20.3002 90.1861H16.6002ZM20.7002 82.2861C20.5002 82.2861 20.3002 82.2861 20.1002 82.2861C19.0002 82.2861 16.5002 82.5861 15.1002 85.3861C15.1002 85.4861 15.0002 85.4861 15.0002 85.5861V85.6861C14.9002 85.8861 14.8002 85.9861 14.8002 86.0861L11.0002 95.9861C10.9002 96.1861 11.0002 96.3861 11.2002 96.4861H11.3002H14.2002C14.4002 96.4861 14.5002 96.3861 14.6002 96.1861L16.0002 92.3861H20.8002L22.2002 96.1861C22.3002 96.3861 22.4002 96.4861 22.6002 96.4861H25.5002C25.7002 96.4861 25.9002 96.2861 25.9002 96.0861V95.9861L20.7002 82.2861Z" fill="white"/>
</g>
</g>
<defs>
<clipPath id="clip0_1006_2">
<rect width="128" height="194" fill="white"/>
</clipPath>
<clipPath id="clip1_1006_2">
<rect width="120" height="19" fill="white" transform="translate(11 78)"/>
</clipPath>
</defs>
</svg>
