<svg width="128" height="194" viewBox="0 0 128 194" fill="none" xmlns="http://www.w3.org/2000/svg">
<rect width="128" height="194" fill="#637270"/>
<path d="M19.87 102.15C18.7367 102.15 17.8567 101.793 17.23 101.08C16.61 100.367 16.3 99.3733 16.3 98.1C16.3 96.84 16.6067 95.85 17.22 95.13C17.8333 94.41 18.7133 94.05 19.86 94.05C20.5467 94.05 21.1333 94.18 21.62 94.44C22.1067 94.6933 22.4867 95.0467 22.76 95.5C23.0333 95.9533 23.1933 96.4733 23.24 97.06H21.57C21.5167 96.5133 21.34 96.0867 21.04 95.78C20.74 95.4667 20.35 95.31 19.87 95.31C19.2633 95.31 18.8067 95.5533 18.5 96.04C18.1933 96.5267 18.04 97.2167 18.04 98.11C18.04 99.0367 18.1967 99.7333 18.51 100.2C18.83 100.66 19.28 100.89 19.86 100.89C20.36 100.89 20.7567 100.73 21.05 100.41C21.35 100.09 21.5233 99.6667 21.57 99.14H23.24C23.1933 99.7267 23.0333 100.247 22.76 100.7C22.4867 101.153 22.1067 101.51 21.62 101.77C21.14 102.023 20.5567 102.15 19.87 102.15ZM26.28 102.12C25.72 102.12 25.26 101.987 24.9 101.72C24.54 101.447 24.2733 101.073 24.1 100.6C23.9267 100.127 23.84 99.59 23.84 98.99C23.84 98.37 23.9267 97.8267 24.1 97.36C24.28 96.8933 24.55 96.53 24.91 96.27C25.27 96.01 25.7233 95.88 26.27 95.88C26.69 95.88 27.0333 95.9633 27.3 96.13C27.5733 96.29 27.78 96.5067 27.92 96.78H28.16V96H29.66V102H28.16V101.22H27.92C27.78 101.473 27.5767 101.687 27.31 101.86C27.0433 102.033 26.7 102.12 26.28 102.12ZM26.7 100.98C27.1067 100.98 27.43 100.803 27.67 100.45C27.9167 100.09 28.04 99.6067 28.04 99C28.04 98.3867 27.9167 97.9033 27.67 97.55C27.43 97.1967 27.1067 97.02 26.7 97.02C26.3333 97.02 26.0433 97.1867 25.83 97.52C25.6233 97.8467 25.52 98.34 25.52 99C25.52 99.66 25.6233 100.157 25.83 100.49C26.0433 100.817 26.3333 100.98 26.7 100.98ZM31.1423 104V96H32.6423V96.78H32.8823C33.0223 96.5267 33.2257 96.3133 33.4923 96.14C33.759 95.9667 34.1157 95.88 34.5623 95.88C35.109 95.88 35.559 96.0167 35.9123 96.29C36.2657 96.5567 36.529 96.9267 36.7023 97.4C36.8757 97.8667 36.9623 98.4033 36.9623 99.01C36.9623 99.6233 36.8723 100.167 36.6923 100.64C36.519 101.107 36.2523 101.47 35.8923 101.73C35.539 101.99 35.0957 102.12 34.5623 102.12C34.1757 102.12 33.8557 102.05 33.6023 101.91C33.349 101.77 33.149 101.58 33.0023 101.34H32.7623V104H31.1423ZM34.1023 100.98C34.469 100.98 34.7557 100.817 34.9623 100.49C35.1757 100.157 35.2823 99.66 35.2823 99C35.2823 98.34 35.1757 97.8467 34.9623 97.52C34.7557 97.1867 34.469 97.02 34.1023 97.02C33.6957 97.02 33.369 97.1967 33.1223 97.55C32.8823 97.9033 32.7623 98.3867 32.7623 99C32.7623 99.6067 32.8823 100.09 33.1223 100.45C33.369 100.803 33.6957 100.98 34.1023 100.98ZM40.0847 102.12C39.5247 102.12 39.0647 101.987 38.7047 101.72C38.3447 101.447 38.078 101.073 37.9047 100.6C37.7314 100.127 37.6447 99.59 37.6447 98.99C37.6447 98.37 37.7314 97.8267 37.9047 97.36C38.0847 96.8933 38.3547 96.53 38.7147 96.27C39.0747 96.01 39.528 95.88 40.0747 95.88C40.4947 95.88 40.838 95.9633 41.1047 96.13C41.378 96.29 41.5847 96.5067 41.7247 96.78H41.9647V96H43.4647V102H41.9647V101.22H41.7247C41.5847 101.473 41.3814 101.687 41.1147 101.86C40.848 102.033 40.5047 102.12 40.0847 102.12ZM40.5047 100.98C40.9114 100.98 41.2347 100.803 41.4747 100.45C41.7214 100.09 41.8447 99.6067 41.8447 99C41.8447 98.3867 41.7214 97.9033 41.4747 97.55C41.2347 97.1967 40.9114 97.02 40.5047 97.02C40.138 97.02 39.848 97.1867 39.6347 97.52C39.428 97.8467 39.3247 98.34 39.3247 99C39.3247 99.66 39.428 100.157 39.6347 100.49C39.848 100.817 40.138 100.98 40.5047 100.98ZM47.3494 102V96H48.9694V102H47.3494ZM48.1594 95.31C47.8727 95.31 47.656 95.2367 47.5094 95.09C47.3627 94.9367 47.2894 94.74 47.2894 94.5C47.2894 94.26 47.3627 94.0667 47.5094 93.92C47.656 93.7667 47.8727 93.69 48.1594 93.69C48.446 93.69 48.6627 93.7667 48.8094 93.92C48.956 94.0667 49.0294 94.26 49.0294 94.5C49.0294 94.74 48.956 94.9367 48.8094 95.09C48.6627 95.2367 48.446 95.31 48.1594 95.31ZM50.4548 102V96H51.9548V96.9H52.1948C52.3148 96.6 52.4982 96.35 52.7448 96.15C52.9982 95.95 53.3682 95.85 53.8548 95.85C54.5215 95.85 55.0215 96.06 55.3548 96.48C55.6882 96.9 55.8548 97.47 55.8548 98.19V102H54.2348V98.46C54.2348 98.0467 54.1615 97.73 54.0148 97.51C53.8682 97.2833 53.6282 97.17 53.2948 97.17C52.9082 97.17 52.6082 97.3233 52.3948 97.63C52.1815 97.93 52.0748 98.3067 52.0748 98.76V102H50.4548ZM59.2517 102.12C58.7051 102.12 58.2551 101.987 57.9017 101.72C57.5484 101.447 57.2851 101.073 57.1117 100.6C56.9384 100.127 56.8517 99.59 56.8517 98.99C56.8517 98.37 56.9384 97.8267 57.1117 97.36C57.2917 96.8933 57.5584 96.53 57.9117 96.27C58.2717 96.01 58.7184 95.88 59.2517 95.88C59.6451 95.88 59.9651 95.95 60.2117 96.09C60.4651 96.23 60.6651 96.42 60.8117 96.66H61.0517V94H62.6717V102H61.1717V101.22H60.9317C60.7917 101.473 60.5884 101.687 60.3217 101.86C60.0551 102.033 59.6984 102.12 59.2517 102.12ZM59.7117 100.98C60.1184 100.98 60.4417 100.803 60.6817 100.45C60.9284 100.09 61.0517 99.6067 61.0517 99C61.0517 98.3867 60.9284 97.9033 60.6817 97.55C60.4417 97.1967 60.1184 97.02 59.7117 97.02C59.3451 97.02 59.0551 97.1867 58.8417 97.52C58.6351 97.8467 58.5317 98.34 58.5317 99C58.5317 99.66 58.6351 100.157 58.8417 100.49C59.0551 100.817 59.3451 100.98 59.7117 100.98ZM64.1541 102V96H65.7741V102H64.1541ZM64.9641 95.31C64.6774 95.31 64.4607 95.2367 64.3141 95.09C64.1674 94.9367 64.0941 94.74 64.0941 94.5C64.0941 94.26 64.1674 94.0667 64.3141 93.92C64.4607 93.7667 64.6774 93.69 64.9641 93.69C65.2507 93.69 65.4674 93.7667 65.6141 93.92C65.7607 94.0667 65.8341 94.26 65.8341 94.5C65.8341 94.74 65.7607 94.9367 65.6141 95.09C65.4674 95.2367 65.2507 95.31 64.9641 95.31ZM69.4995 102.15C68.8329 102.15 68.2995 102.047 67.8995 101.84C67.5062 101.627 67.2162 101.36 67.0295 101.04C66.8495 100.72 66.7462 100.4 66.7195 100.08H68.2595C68.2929 100.253 68.3629 100.413 68.4695 100.56C68.5829 100.7 68.7295 100.81 68.9095 100.89C69.0962 100.97 69.3195 101.01 69.5795 101.01C69.8995 101.01 70.1295 100.957 70.2695 100.85C70.4095 100.737 70.4795 100.593 70.4795 100.42C70.4795 100.26 70.4129 100.127 70.2795 100.02C70.1529 99.9067 69.9429 99.8033 69.6495 99.71L68.9295 99.47C68.5829 99.35 68.2629 99.22 67.9695 99.08C67.6762 98.9333 67.4395 98.7467 67.2595 98.52C67.0862 98.2933 66.9995 98 66.9995 97.64C66.9995 97.1067 67.2029 96.6767 67.6095 96.35C68.0162 96.0167 68.5929 95.85 69.3395 95.85C69.8795 95.85 70.3195 95.9333 70.6595 96.1C71.0062 96.2667 71.2662 96.49 71.4395 96.77C71.6129 97.0433 71.7129 97.3467 71.7395 97.68H70.2595C70.2262 97.44 70.1262 97.2567 69.9595 97.13C69.7929 96.9967 69.5662 96.93 69.2795 96.93C69.0195 96.93 68.8229 96.98 68.6895 97.08C68.5629 97.18 68.4995 97.3167 68.4995 97.49C68.4995 97.6633 68.5695 97.8067 68.7095 97.92C68.8495 98.0333 69.0629 98.1367 69.3495 98.23L70.0695 98.46C70.4162 98.5667 70.7329 98.6933 71.0195 98.84C71.3129 98.98 71.5462 99.1667 71.7195 99.4C71.8929 99.6267 71.9795 99.9233 71.9795 100.29C71.9795 100.85 71.7662 101.3 71.3395 101.64C70.9195 101.98 70.3062 102.15 69.4995 102.15ZM72.9548 104V96H74.4548V96.78H74.6948C74.8348 96.5267 75.0382 96.3133 75.3048 96.14C75.5715 95.9667 75.9282 95.88 76.3748 95.88C76.9215 95.88 77.3715 96.0167 77.7248 96.29C78.0782 96.5567 78.3415 96.9267 78.5148 97.4C78.6882 97.8667 78.7748 98.4033 78.7748 99.01C78.7748 99.6233 78.6848 100.167 78.5048 100.64C78.3315 101.107 78.0648 101.47 77.7048 101.73C77.3515 101.99 76.9082 102.12 76.3748 102.12C75.9882 102.12 75.6682 102.05 75.4148 101.91C75.1615 101.77 74.9615 101.58 74.8148 101.34H74.5748V104H72.9548ZM75.9148 100.98C76.2815 100.98 76.5682 100.817 76.7748 100.49C76.9882 100.157 77.0948 99.66 77.0948 99C77.0948 98.34 76.9882 97.8467 76.7748 97.52C76.5682 97.1867 76.2815 97.02 75.9148 97.02C75.5082 97.02 75.1815 97.1967 74.9348 97.55C74.6948 97.9033 74.5748 98.3867 74.5748 99C74.5748 99.6067 74.6948 100.09 74.9348 100.45C75.1815 100.803 75.5082 100.98 75.9148 100.98ZM82.4172 102.15C81.4239 102.15 80.6805 101.867 80.1872 101.3C79.7005 100.727 79.4572 99.96 79.4572 99C79.4572 98.04 79.7005 97.2767 80.1872 96.71C80.6805 96.1367 81.4239 95.85 82.4172 95.85C83.4105 95.85 84.1505 96.1367 84.6372 96.71C85.1305 97.2767 85.3772 98.04 85.3772 99C85.3772 99.96 85.1305 100.727 84.6372 101.3C84.1505 101.867 83.4105 102.15 82.4172 102.15ZM82.4172 101.07C82.8572 101.07 83.1805 100.897 83.3872 100.55C83.5939 100.203 83.6972 99.6833 83.6972 98.99C83.6972 98.3033 83.5939 97.79 83.3872 97.45C83.1805 97.1033 82.8572 96.93 82.4172 96.93C81.9772 96.93 81.6539 97.1033 81.4472 97.45C81.2405 97.79 81.1372 98.3033 81.1372 98.99C81.1372 99.6833 81.2405 100.203 81.4472 100.55C81.6539 100.897 81.9772 101.07 82.4172 101.07ZM86.4548 102V96H87.9548V96.9H88.1948C88.3148 96.6 88.4982 96.35 88.7448 96.15C88.9982 95.95 89.3682 95.85 89.8548 95.85C90.5215 95.85 91.0215 96.06 91.3548 96.48C91.6882 96.9 91.8548 97.47 91.8548 98.19V102H90.2348V98.46C90.2348 98.0467 90.1615 97.73 90.0148 97.51C89.8682 97.2833 89.6282 97.17 89.2948 97.17C88.9082 97.17 88.6082 97.3233 88.3948 97.63C88.1815 97.93 88.0748 98.3067 88.0748 98.76V102H86.4548ZM93.2517 102V96H94.8717V102H93.2517ZM93.4017 95.4V95.34L94.1417 93.6H95.6417V93.66L94.7217 95.4H93.4017ZM97.4672 102L95.7372 96.06V96H97.3772L98.6672 100.68H98.9072L100.207 96H101.697V96.06L99.9672 102H97.4672ZM105.066 102.15C104.12 102.15 103.396 101.867 102.896 101.3C102.403 100.733 102.156 99.9633 102.156 98.99C102.156 98.3367 102.266 97.7767 102.486 97.31C102.713 96.8433 103.04 96.4833 103.466 96.23C103.9 95.9767 104.426 95.85 105.046 95.85C105.94 95.85 106.623 96.12 107.096 96.66C107.576 97.2 107.816 97.9933 107.816 99.04V99.38H103.736C103.77 99.8867 103.9 100.287 104.126 100.58C104.36 100.867 104.673 101.01 105.066 101.01C105.38 101.01 105.63 100.917 105.816 100.73C106.01 100.543 106.136 100.327 106.196 100.08H107.736C107.676 100.447 107.543 100.787 107.336 101.1C107.13 101.413 106.84 101.667 106.466 101.86C106.093 102.053 105.626 102.15 105.066 102.15ZM103.736 98.36H106.236C106.21 97.9067 106.096 97.5567 105.896 97.31C105.696 97.0567 105.41 96.93 105.036 96.93C104.67 96.93 104.373 97.05 104.146 97.29C103.926 97.5233 103.79 97.88 103.736 98.36ZM109.351 102C109.164 101.787 109.031 101.547 108.951 101.28C108.878 101.007 108.841 100.65 108.841 100.21V94H110.461V100.04C110.461 100.547 110.518 100.943 110.631 101.23C110.744 101.51 110.894 101.747 111.081 101.94V102H109.351Z" fill="white"/>
</svg>
